<svg xmlns="http://www.w3.org/2000/svg" xmlns:xlink="http://www.w3.org/1999/xlink" viewBox="0 0 600 600" width="600" height="600" preserveAspectRatio="xMidYMid meet" style="width: 100%; height: 100%; transform: translate3d(0px, 0px, 0px); content-visibility: visible;" id="Flags Garland"><defs><clipPath id="__lottie_element_2"><rect width="600" height="600" x="0" y="0"/></clipPath></defs><g clip-path="url(#__lottie_element_2)"><g transform="matrix(0.9999979734420776,0.0020246170461177826,-0.0020246170461177826,0.9999979734420776,401.8866882324219,372.59027099609375)" opacity="1" style="display: block;"><g opacity="1" transform="matrix(1,0,0,1,46.42900085449219,55.07600021362305)"><path fill="rgb(130,198,249)" fill-opacity="1" d=" M25.16699981689453,-54.82600021362305 C25.16699981689453,-54.82600021362305 -46.17900085449219,-38.816001892089844 -46.17900085449219,-38.816001892089844 C-46.17900085449219,-38.816001892089844 -25.16699981689453,54.82600021362305 -25.16699981689453,54.82600021362305 C-25.16699981689453,54.82600021362305 3.502000093460083,15.607999801635742 3.502000093460083,15.607999801635742 C3.502000093460083,15.607999801635742 46.17900085449219,38.816001892089844 46.17900085449219,38.816001892089844 C46.17900085449219,38.816001892089844 25.16699981689453,-54.82600021362305 25.16699981689453,-54.82600021362305z"/></g></g><g transform="matrix(0.9999979734420776,0.0020246170461177826,-0.0020246170461177826,0.9999979734420776,428.2023620605469,395.00860595703125)" opacity="1" style="display: block;"><g opacity="1" transform="matrix(1,0,0,1,33.249000549316406,35.888999938964844)"><path fill="rgb(10,137,255)" fill-opacity="1" d=" M32.999000549316406,35.638999938964844 C32.999000549316406,35.638999938964844 17.0049991607666,-35.638999938964844 17.0049991607666,-35.638999938964844 C17.0049991607666,-35.638999938964844 -32.999000549316406,-24.41900062561035 -32.999000549316406,-24.41900062561035 C-32.999000549316406,-24.41900062561035 -21.19499969482422,28.184999465942383 -21.19499969482422,28.184999465942383 C-21.19499969482422,28.184999465942383 -9.678000450134277,12.430999755859375 -9.678000450134277,12.430999755859375 C-9.678000450134277,12.430999755859375 32.999000549316406,35.638999938964844 32.999000549316406,35.638999938964844z"/></g></g><g transform="matrix(0.9999979734420776,0.0020246170461177826,-0.0020246170461177826,0.9999979734420776,377.1868591308594,347.7912292480469)" opacity="1" style="display: block;"><g opacity="1" transform="matrix(1,0,0,1,71.17900085449219,79.82599639892578)"><path stroke-linecap="round" stroke-linejoin="round" fill-opacity="0" stroke="rgb(0,0,0)" stroke-opacity="1" stroke-width="10.000095739242523" d=" M46.18000030517578,38.816001892089844 C46.18000030517578,38.816001892089844 3.503000020980835,15.607999801635742 3.503000020980835,15.607999801635742 C3.503000020980835,15.607999801635742 -25.167999267578125,54.82600021362305 -25.167999267578125,54.82600021362305 C-25.167999267578125,54.82600021362305 -46.18000030517578,-38.816001892089844 -46.18000030517578,-38.816001892089844 C-46.18000030517578,-38.816001892089844 25.16699981689453,-54.82600021362305 25.16699981689453,-54.82600021362305 C25.16699981689453,-54.82600021362305 46.18000030517578,38.816001892089844 46.18000030517578,38.816001892089844z"/></g></g><g transform="matrix(1,0,0,1,259.04803466796875,396.609130859375)" opacity="1" style="display: block;"><g opacity="1" transform="matrix(1,0,0,1,36.81100082397461,48.236000061035156)"><path fill="rgb(234,108,132)" fill-opacity="1" d=" M-36.56100082397461,-47.986000061035156 C-36.56100082397461,-47.986000061035156 -36.56100082397461,47.986000061035156 -36.56100082397461,47.986000061035156 C-36.56100082397461,47.986000061035156 -0.0010000000474974513,15.994999885559082 -0.0010000000474974513,15.994999885559082 C-0.0010000000474974513,15.994999885559082 36.56100082397461,47.986000061035156 36.56100082397461,47.986000061035156 C36.56100082397461,47.986000061035156 36.56100082397461,-47.986000061035156 36.56100082397461,-47.986000061035156 C36.56100082397461,-47.986000061035156 -36.56100082397461,-47.986000061035156 -36.56100082397461,-47.986000061035156z"/></g></g><g transform="matrix(1,0,0,1,276.623046875,418.18212890625)" opacity="1" style="display: block;"><g opacity="1" transform="matrix(1,0,0,1,28.023000717163086,39.44900131225586)"><path fill="rgb(229,53,78)" fill-opacity="1" d=" M-8.786999702453613,7.208000183105469 C-8.786999702453613,7.208000183105469 27.773000717163086,39.19900131225586 27.773000717163086,39.19900131225586 C27.773000717163086,39.19900131225586 27.773000717163086,-39.19900131225586 27.773000717163086,-39.19900131225586 C27.773000717163086,-39.19900131225586 -27.773000717163086,-39.19900131225586 -27.773000717163086,-39.19900131225586 C-27.773000717163086,-39.19900131225586 -27.773000717163086,23.820999145507812 -27.773000717163086,23.820999145507812 C-27.773000717163086,23.820999145507812 -8.786999702453613,7.208000183105469 -8.786999702453613,7.208000183105469z"/></g></g><g transform="matrix(1,0,0,1,234.29904174804688,371.859130859375)" opacity="1" style="display: block;"><g opacity="1" transform="matrix(1,0,0,1,61.560001373291016,72.98600006103516)"><path stroke-linecap="round" stroke-linejoin="round" fill-opacity="0" stroke="rgb(0,0,0)" stroke-opacity="1" stroke-width="10.000095901379385" d=" M36.560001373291016,47.98500061035156 C36.560001373291016,47.98500061035156 0,15.994999885559082 0,15.994999885559082 C0,15.994999885559082 -36.560001373291016,47.98500061035156 -36.560001373291016,47.98500061035156 C-36.560001373291016,47.98500061035156 -36.560001373291016,-47.98500061035156 -36.560001373291016,-47.98500061035156 C-36.560001373291016,-47.98500061035156 36.560001373291016,-47.98500061035156 36.560001373291016,-47.98500061035156 C36.560001373291016,-47.98500061035156 36.560001373291016,47.98500061035156 36.560001373291016,47.98500061035156z"/></g></g><g transform="matrix(0.9996845722198486,0.025114884600043297,-0.025114884600043297,0.9996845722198486,97.19757080078125,368.3008117675781)" opacity="1" style="display: block;"><g opacity="1" transform="matrix(1,0,0,1,46.42900085449219,55.07600021362305)"><path fill="rgb(130,198,249)" fill-opacity="1" d=" M-25.16699981689453,-54.82600021362305 C-25.16699981689453,-54.82600021362305 -46.18000030517578,38.816001892089844 -46.18000030517578,38.816001892089844 C-46.18000030517578,38.816001892089844 -3.503000020980835,15.607999801635742 -3.503000020980835,15.607999801635742 C-3.503000020980835,15.607999801635742 25.16699981689453,54.82600021362305 25.16699981689453,54.82600021362305 C25.16699981689453,54.82600021362305 46.18000030517578,-38.816001892089844 46.18000030517578,-38.816001892089844 C46.18000030517578,-38.816001892089844 -25.16699981689453,-54.82600021362305 -25.16699981689453,-54.82600021362305z"/></g></g><g transform="matrix(0.9996845722198486,0.025114884600043297,-0.025114884600043297,0.9996845722198486,123.28007507324219,395.3254089355469)" opacity="1" style="display: block;"><g opacity="1" transform="matrix(1,0,0,1,30.658000946044922,41.895999908447266)"><path fill="rgb(10,137,255)" fill-opacity="1" d=" M-14.484999656677246,2.4260001182556152 C-14.484999656677246,2.4260001182556152 14.184000015258789,41.645999908447266 14.184000015258789,41.645999908447266 C14.184000015258789,41.645999908447266 30.408000946044922,-30.655000686645508 30.408000946044922,-30.655000686645508 C30.408000946044922,-30.655000686645508 -18.576000213623047,-41.645999908447266 -18.576000213623047,-41.645999908447266 C-18.576000213623047,-41.645999908447266 -30.408000946044922,11.086000442504883 -30.408000946044922,11.086000442504883 C-30.408000946044922,11.086000442504883 -14.484999656677246,2.4260001182556152 -14.484999656677246,2.4260001182556152z"/></g></g><g transform="matrix(0.9996845722198486,0.025114884600043297,-0.025114884600043297,0.9996845722198486,73.07594299316406,342.9380187988281)" opacity="1" style="display: block;"><g opacity="1" transform="matrix(1,0,0,1,71.17900085449219,79.82599639892578)"><path stroke-linecap="round" stroke-linejoin="round" fill-opacity="0" stroke="rgb(0,0,0)" stroke-opacity="1" stroke-width="10.000095739242441" d=" M-46.18000030517578,38.816001892089844 C-46.18000030517578,38.816001892089844 -3.503000020980835,15.607999801635742 -3.503000020980835,15.607999801635742 C-3.503000020980835,15.607999801635742 25.16699981689453,54.82600021362305 25.16699981689453,54.82600021362305 C25.16699981689453,54.82600021362305 46.18000030517578,-38.816001892089844 46.18000030517578,-38.816001892089844 C46.18000030517578,-38.816001892089844 -25.167999267578125,-54.82600021362305 -25.167999267578125,-54.82600021362305 C-25.167999267578125,-54.82600021362305 -46.18000030517578,38.816001892089844 -46.18000030517578,38.816001892089844z"/></g></g><g transform="matrix(1,0,0,1,40.774017333984375,315.5570068359375)" opacity="1" style="display: block;"><g opacity="1" transform="matrix(1,0,0,1,257.489990234375,50.78799819946289)"><path stroke-linecap="round" stroke-linejoin="round" fill-opacity="0" stroke="rgb(0,0,0)" stroke-opacity="1" stroke-width="10" d=" M-232.49000549316406,-25.788000106811523 C-186.2620849609375,-0.35456931591033936 -100.95099639892578,28.879121780395508 0.0010000000474974513,28.879121780395508 C100.95099639892578,28.879121780395508 187.93336486816406,3.04581356048584 232.49000549316406,-25.788000106811523"/></g></g><g transform="matrix(0.9961973428726196,-0.08712579309940338,0.08712579309940338,0.9961973428726196,402.1538391113281,168.77618408203125)" opacity="1" style="display: block;"><g opacity="1" transform="matrix(1,0,0,1,46.42900085449219,55.07600021362305)"><path fill="rgb(234,108,132)" fill-opacity="1" d=" M25.16699981689453,-54.82600021362305 C25.16699981689453,-54.82600021362305 -46.17900085449219,-38.816001892089844 -46.17900085449219,-38.816001892089844 C-46.17900085449219,-38.816001892089844 -25.16699981689453,54.82600021362305 -25.16699981689453,54.82600021362305 C-25.16699981689453,54.82600021362305 3.502000093460083,15.607999801635742 3.502000093460083,15.607999801635742 C3.502000093460083,15.607999801635742 46.17900085449219,38.816001892089844 46.17900085449219,38.816001892089844 C46.17900085449219,38.816001892089844 25.16699981689453,-54.82600021362305 25.16699981689453,-54.82600021362305z"/></g></g><g transform="matrix(0.9961973428726196,-0.08712579309940338,0.08712579309940338,0.9961973428726196,430.3631591796875,188.75941467285156)" opacity="1" style="display: block;"><g opacity="1" transform="matrix(1,0,0,1,33.249000549316406,35.888999938964844)"><path fill="rgb(228,53,78)" fill-opacity="1" d=" M32.999000549316406,35.638999938964844 C32.999000549316406,35.638999938964844 17.0049991607666,-35.638999938964844 17.0049991607666,-35.638999938964844 C17.0049991607666,-35.638999938964844 -32.999000549316406,-24.41900062561035 -32.999000549316406,-24.41900062561035 C-32.999000549316406,-24.41900062561035 -21.19499969482422,28.184999465942383 -21.19499969482422,28.184999465942383 C-21.19499969482422,28.184999465942383 -9.678000450134277,12.430999755859375 -9.678000450134277,12.430999755859375 C-9.678000450134277,12.430999755859375 32.999000549316406,35.638999938964844 32.999000549316406,35.638999938964844z"/></g></g><g transform="matrix(0.9961973428726196,-0.08712579309940338,0.08712579309940338,0.9961973428726196,375.3416748046875,146.27764892578125)" opacity="1" style="display: block;"><g opacity="1" transform="matrix(1,0,0,1,71.17900085449219,79.82599639892578)"><path stroke-linecap="round" stroke-linejoin="round" fill-opacity="0" stroke="rgb(0,0,0)" stroke-opacity="1" stroke-width="10.000096096547166" d=" M46.18000030517578,38.816001892089844 C46.18000030517578,38.816001892089844 3.503000020980835,15.607999801635742 3.503000020980835,15.607999801635742 C3.503000020980835,15.607999801635742 -25.167999267578125,54.82600021362305 -25.167999267578125,54.82600021362305 C-25.167999267578125,54.82600021362305 -46.18000030517578,-38.816001892089844 -46.18000030517578,-38.816001892089844 C-46.18000030517578,-38.816001892089844 25.16699981689453,-54.82600021362305 25.16699981689453,-54.82600021362305 C25.16699981689453,-54.82600021362305 46.18000030517578,38.816001892089844 46.18000030517578,38.816001892089844z"/></g></g><g transform="matrix(1,0,0,1,259.8210144042969,197.1289520263672)" opacity="1" style="display: block;"><g opacity="1" transform="matrix(1,0,0,1,36.81100082397461,48.236000061035156)"><path fill="rgb(130,197,248)" fill-opacity="1" d=" M-36.56100082397461,-47.986000061035156 C-36.56100082397461,-47.986000061035156 -36.56100082397461,47.986000061035156 -36.56100082397461,47.986000061035156 C-36.56100082397461,47.986000061035156 -0.0010000000474974513,15.994999885559082 -0.0010000000474974513,15.994999885559082 C-0.0010000000474974513,15.994999885559082 36.56100082397461,47.986000061035156 36.56100082397461,47.986000061035156 C36.56100082397461,47.986000061035156 36.56100082397461,-47.986000061035156 36.56100082397461,-47.986000061035156 C36.56100082397461,-47.986000061035156 -36.56100082397461,-47.986000061035156 -36.56100082397461,-47.986000061035156z"/></g></g><g transform="matrix(1,0,0,1,277.3960266113281,218.7019500732422)" opacity="1" style="display: block;"><g opacity="1" transform="matrix(1,0,0,1,28.023000717163086,39.44900131225586)"><path fill="rgb(9,136,255)" fill-opacity="1" d=" M-8.786999702453613,7.208000183105469 C-8.786999702453613,7.208000183105469 27.773000717163086,39.19900131225586 27.773000717163086,39.19900131225586 C27.773000717163086,39.19900131225586 27.773000717163086,-39.19900131225586 27.773000717163086,-39.19900131225586 C27.773000717163086,-39.19900131225586 -27.773000717163086,-39.19900131225586 -27.773000717163086,-39.19900131225586 C-27.773000717163086,-39.19900131225586 -27.773000717163086,23.820999145507812 -27.773000717163086,23.820999145507812 C-27.773000717163086,23.820999145507812 -8.786999702453613,7.208000183105469 -8.786999702453613,7.208000183105469z"/></g></g><g transform="matrix(1,0,0,1,235.072021484375,172.3789520263672)" opacity="1" style="display: block;"><g opacity="1" transform="matrix(1,0,0,1,61.560001373291016,72.98600006103516)"><path stroke-linecap="round" stroke-linejoin="round" fill-opacity="0" stroke="rgb(0,0,0)" stroke-opacity="1" stroke-width="10.000095901379586" d=" M36.560001373291016,47.98500061035156 C36.560001373291016,47.98500061035156 0,15.994999885559082 0,15.994999885559082 C0,15.994999885559082 -36.560001373291016,47.98500061035156 -36.560001373291016,47.98500061035156 C-36.560001373291016,47.98500061035156 -36.560001373291016,-47.98500061035156 -36.560001373291016,-47.98500061035156 C-36.560001373291016,-47.98500061035156 36.560001373291016,-47.98500061035156 36.560001373291016,-47.98500061035156 C36.560001373291016,-47.98500061035156 36.560001373291016,47.98500061035156 36.560001373291016,47.98500061035156z"/></g></g><g transform="matrix(0.9925501346588135,0.12183690816164017,-0.12183690816164017,0.9925501346588135,99.09898376464844,156.06492614746094)" opacity="1" style="display: block;"><g opacity="1" transform="matrix(1,0,0,1,46.42900085449219,55.07600021362305)"><path fill="rgb(234,108,132)" fill-opacity="1" d=" M-25.16699981689453,-54.82600021362305 C-25.16699981689453,-54.82600021362305 -46.18000030517578,38.816001892089844 -46.18000030517578,38.816001892089844 C-46.18000030517578,38.816001892089844 -3.503000020980835,15.607999801635742 -3.503000020980835,15.607999801635742 C-3.503000020980835,15.607999801635742 25.16699981689453,54.82600021362305 25.16699981689453,54.82600021362305 C25.16699981689453,54.82600021362305 46.18000030517578,-38.816001892089844 46.18000030517578,-38.816001892089844 C46.18000030517578,-38.816001892089844 -25.16699981689453,-54.82600021362305 -25.16699981689453,-54.82600021362305z"/></g></g><g transform="matrix(0.9925501346588135,0.12183690816164017,-0.12183690816164017,0.9925501346588135,122.4409408569336,185.48904418945312)" opacity="1" style="display: block;"><g opacity="1" transform="matrix(1,0,0,1,30.658000946044922,41.895999908447266)"><path fill="rgb(228,53,78)" fill-opacity="1" d=" M-14.484999656677246,2.4260001182556152 C-14.484999656677246,2.4260001182556152 14.184000015258789,41.645999908447266 14.184000015258789,41.645999908447266 C14.184000015258789,41.645999908447266 30.408000946044922,-30.655000686645508 30.408000946044922,-30.655000686645508 C30.408000946044922,-30.655000686645508 -18.576000213623047,-41.645999908447266 -18.576000213623047,-41.645999908447266 C-18.576000213623047,-41.645999908447266 -30.408000946044922,11.086000442504883 -30.408000946044922,11.086000442504883 C-30.408000946044922,11.086000442504883 -14.484999656677246,2.4260001182556152 -14.484999656677246,2.4260001182556152z"/></g></g><g transform="matrix(0.9925501346588135,0.12183690816164017,-0.12183690816164017,0.9925501346588135,77.54772186279297,128.48472595214844)" opacity="1" style="display: block;"><g opacity="1" transform="matrix(1,0,0,1,71.17900085449219,79.82599639892578)"><path stroke-linecap="round" stroke-linejoin="round" fill-opacity="0" stroke="rgb(0,0,0)" stroke-opacity="1" stroke-width="10.000096096547246" d=" M-46.18000030517578,38.816001892089844 C-46.18000030517578,38.816001892089844 -3.503000020980835,15.607999801635742 -3.503000020980835,15.607999801635742 C-3.503000020980835,15.607999801635742 25.16699981689453,54.82600021362305 25.16699981689453,54.82600021362305 C25.16699981689453,54.82600021362305 46.18000030517578,-38.816001892089844 46.18000030517578,-38.816001892089844 C46.18000030517578,-38.816001892089844 -25.167999267578125,-54.82600021362305 -25.167999267578125,-54.82600021362305 C-25.167999267578125,-54.82600021362305 -46.18000030517578,38.816001892089844 -46.18000030517578,38.816001892089844z"/></g></g><g transform="matrix(1,0,0,1,40.774017333984375,95.55699920654297)" opacity="1" style="display: block;"><g opacity="1" transform="matrix(1,0,0,1,257.489990234375,50.78799819946289)"><path stroke-linecap="round" stroke-linejoin="round" fill-opacity="0" stroke="rgb(0,0,0)" stroke-opacity="1" stroke-width="10" d=" M-232.49000549316406,-25.788000106811523 C-188.26332092285156,9.651629447937012 -100.95099639892578,49.78096008300781 0.0010000000474974513,49.78096008300781 C100.95099639892578,49.78096008300781 191.7357177734375,12.651764869689941 232.49000549316406,-25.788000106811523"/></g></g></g></svg>