<svg width="542" height="932" viewBox="0 0 542 932" fill="none" xmlns="http://www.w3.org/2000/svg">
    <path d="M-48.7007 -380.512C-33.4969 -342.326 -20.3146 -306.86 -9.00567 -273.955L251 424L-285.894 -0.370734C-112.66 129.014 167.598 239.886 -9.00567 -273.955L-48.7007 -380.512Z" fill="#FF00D6"/>
    <path d="M-48.7007 -380.512C203.93 254.01 -101.567 137.3 -285.894 -0.370745L251 424L-48.7007 -380.512Z" stroke="black"/>
    <path d="M123.474 1009.91C-160.116 680.179 -711.598 888.624 -135.62 689.752C325.163 530.654 229.102 836.902 123.474 1009.91Z" fill="#FFB800" stroke="black"/>
    <path d="M479.5 434L615.033 579.5V870.5L479.5 1016L343.967 870.5V579.5L479.5 434Z" fill="#0029FF"/>
    <path d="M272.576 272.683C309.475 295.513 349.684 307.798 386.351 307.443C423.018 307.088 453.875 294.116 473.663 270.736C493.452 247.357 500.948 215.018 494.874 179.228C488.801 143.438 469.533 106.413 440.355 74.4605C411.177 42.508 373.893 17.6055 334.856 3.99594C295.819 -9.61357 257.445 -11.088 226.272 -0.17613C195.098 10.7357 173.055 33.3588 163.897 63.8383C154.739 94.3178 159.033 130.768 176.048 166.978L258.376 157.794C250.576 141.195 248.607 124.486 252.806 110.514C257.004 96.5419 267.109 86.1713 281.399 81.1692C295.689 76.167 313.28 76.8429 331.175 83.0817C349.07 89.3204 366.161 100.736 379.537 115.383C392.913 130.031 401.745 147.004 404.529 163.41C407.313 179.816 403.877 194.641 394.806 205.358C385.735 216.076 371.59 222.022 354.781 222.185C337.972 222.348 319.54 216.716 302.625 206.251L272.576 272.683Z" fill="#00FF57"/>
    <path fill-rule="evenodd" clip-rule="evenodd" d="M274.24 506.396C275.002 496.636 275.61 486.565 276.051 476.237C282.695 468.746 289.082 461.28 295.187 453.884C308.371 469.856 320.238 485.503 330.533 500.371C313.257 503.081 294.327 505.132 274.24 506.396ZM267.482 563.484C270.341 546.187 272.633 526.985 274.24 506.396C265.312 506.958 256.155 507.364 246.812 507.603C251.843 502.468 256.886 497.189 261.927 491.776C266.752 486.594 271.463 481.41 276.051 476.237C276.608 463.196 276.899 449.747 276.899 436C276.899 434.825 276.897 433.653 276.893 432.482C283.235 439.654 289.34 446.801 295.187 453.884C308.166 438.16 319.869 422.751 330.052 408.09C389.872 417.412 430 434.603 430 454.268C430 473.88 390.087 491.032 330.533 500.371C366.271 551.985 383.06 594.207 370.185 608.033C357.092 622.094 316.654 603.211 267.482 563.484ZM186.434 562.974C195.489 618.094 210.285 654 227 654C243.663 654 258.419 618.316 267.482 563.484C254.372 552.892 240.641 540.819 226.643 527.494C233.318 521.14 240.053 514.501 246.812 507.603C240.293 507.77 233.684 507.855 227 507.855C220.065 507.855 213.211 507.763 206.455 507.584C201.43 502.455 196.393 497.182 191.358 491.776C186.796 486.876 182.336 481.974 177.985 477.082C177.404 463.777 177.1 450.044 177.1 436C177.1 434.554 177.104 433.111 177.11 431.672C181.738 426.453 186.49 421.221 191.358 415.993C196.135 410.863 200.914 405.854 205.683 400.974C212.689 400.781 219.801 400.682 227 400.682C233.948 400.682 240.814 400.774 247.583 400.954C252.358 405.84 257.144 410.856 261.927 415.993C267.047 421.492 272.039 426.994 276.893 432.482C276.856 422.225 276.656 412.14 276.306 402.273C295.44 403.533 313.5 405.511 330.052 408.09C366.121 356.162 383.118 313.623 370.185 299.735C357.486 286.098 319.063 303.451 271.897 340.755C263.805 268.084 246.741 218 227 218C207.211 218 190.113 268.323 182.045 341.275C134.579 303.613 95.8575 286.035 83.0998 299.735C70.1591 313.632 87.1864 356.217 123.303 408.191C63.8398 417.536 24 434.674 24 454.268C24 473.81 63.6254 490.908 122.823 500.27C87.0358 551.93 70.2166 594.198 83.0999 608.034C96.2486 622.154 136.977 603.049 186.434 562.974ZM179.759 506.396C159.422 505.117 140.272 503.029 122.823 500.27C133.101 485.432 144.945 469.82 158.098 453.884C164.433 461.559 171.071 469.308 177.985 477.082C178.423 487.114 179.018 496.903 179.759 506.396ZM179.759 506.396C188.454 506.943 197.366 507.343 206.455 507.584C213.22 514.489 219.962 521.134 226.643 527.494C212.868 540.606 199.353 552.505 186.434 562.974C183.614 545.81 181.351 526.783 179.759 506.396ZM158.098 453.884C145.149 438.196 133.47 422.822 123.303 408.191C140.03 405.562 158.311 403.55 177.694 402.273C177.352 411.88 177.155 421.694 177.11 431.672C170.511 439.115 164.165 446.534 158.098 453.884ZM226.643 380.275C242.222 365.445 257.469 352.166 271.897 340.755C274.025 359.866 275.533 380.538 276.306 402.273C266.97 401.658 257.379 401.214 247.583 400.954C240.566 393.773 233.571 386.87 226.643 380.275ZM226.643 380.275C211.3 365.67 196.279 352.569 182.045 341.275C179.947 360.241 178.46 380.735 177.694 402.273C186.796 401.674 196.141 401.236 205.683 400.974C212.707 393.785 219.708 386.876 226.643 380.275Z" fill="#515151"/>
    <path d="M286.868 289.276H280.868V268.963C280.868 266.796 280.722 264.974 280.43 263.494C280.16 261.994 279.587 260.786 278.712 259.869C277.857 258.953 276.639 258.296 275.055 257.901C273.493 257.484 271.43 257.276 268.868 257.276C266.055 257.276 263.743 257.515 261.93 257.994C260.118 258.453 258.691 259.109 257.649 259.963C256.607 260.796 255.878 261.807 255.462 262.994C255.066 264.182 254.868 265.505 254.868 266.963V289.276H248.868V253.276H254.868V258.963C254.889 258.901 254.982 258.692 255.149 258.338C255.316 257.984 255.607 257.567 256.024 257.088C256.462 256.588 257.045 256.057 257.774 255.494C258.524 254.932 259.482 254.411 260.649 253.932C261.837 253.453 263.264 253.057 264.93 252.744C266.597 252.432 268.576 252.276 270.868 252.276C273.118 252.276 275.066 252.421 276.712 252.713C278.378 252.984 279.795 253.401 280.962 253.963C282.149 254.505 283.107 255.192 283.837 256.026C284.587 256.838 285.18 257.776 285.618 258.838C285.972 258.276 286.524 257.619 287.274 256.869C288.024 256.119 289.066 255.401 290.399 254.713C291.753 254.026 293.441 253.453 295.462 252.994C297.482 252.515 299.951 252.276 302.868 252.276C305.264 252.276 307.316 252.442 309.024 252.776C310.753 253.088 312.212 253.567 313.399 254.213C314.587 254.838 315.535 255.619 316.243 256.557C316.972 257.494 317.524 258.588 317.899 259.838C318.295 261.067 318.555 262.453 318.68 263.994C318.805 265.515 318.868 267.171 318.868 268.963V289.276H312.868V268.963C312.868 266.796 312.722 264.974 312.43 263.494C312.16 261.994 311.587 260.786 310.712 259.869C309.857 258.953 308.639 258.296 307.055 257.901C305.493 257.484 303.43 257.276 300.868 257.276C298.055 257.276 295.743 257.515 293.93 257.994C292.118 258.453 290.691 259.109 289.649 259.963C288.607 260.796 287.878 261.807 287.462 262.994C287.066 264.182 286.868 265.505 286.868 266.963V289.276ZM362.712 284.338C362.649 284.588 362.18 285.213 361.305 286.213C360.68 286.963 359.847 287.63 358.805 288.213C357.764 288.776 356.368 289.213 354.618 289.526C352.889 289.859 350.607 290.026 347.774 290.026C344.003 290.026 340.785 289.828 338.118 289.432C335.451 289.057 333.274 288.474 331.587 287.682C329.899 286.869 328.66 285.838 327.868 284.588C327.097 283.338 326.712 281.849 326.712 280.119C326.712 278.307 326.92 276.776 327.337 275.526C327.774 274.255 328.399 273.192 329.212 272.338C330.045 271.484 331.045 270.817 332.212 270.338C333.378 269.859 334.701 269.494 336.18 269.244C337.68 268.994 339.316 268.838 341.087 268.776C342.857 268.713 344.743 268.682 346.743 268.682C349.597 268.682 351.982 268.807 353.899 269.057C355.816 269.286 357.378 269.588 358.587 269.963C359.816 270.317 360.743 270.703 361.368 271.119C361.993 271.536 362.441 271.921 362.712 272.276C362.712 269.942 362.607 267.953 362.399 266.307C362.212 264.661 361.889 263.286 361.43 262.182C360.993 261.078 360.42 260.203 359.712 259.557C359.003 258.89 358.128 258.39 357.087 258.057C356.066 257.724 354.868 257.515 353.493 257.432C352.118 257.328 350.545 257.276 348.774 257.276C346.024 257.276 343.743 257.349 341.93 257.494C340.118 257.619 338.68 257.88 337.618 258.276C336.555 258.671 335.805 259.224 335.368 259.932C334.93 260.619 334.712 261.526 334.712 262.651H328.712C328.712 260.755 329.045 259.151 329.712 257.838C330.399 256.526 331.524 255.463 333.087 254.651C334.67 253.817 336.743 253.213 339.305 252.838C341.868 252.463 345.024 252.276 348.774 252.276C352.441 252.276 355.545 252.578 358.087 253.182C360.628 253.786 362.68 254.849 364.243 256.369C365.826 257.89 366.962 259.942 367.649 262.526C368.357 265.088 368.712 268.338 368.712 272.276V289.276H362.712V284.338ZM348.774 285.276C351.42 285.276 353.628 285.151 355.399 284.901C357.191 284.651 358.628 284.276 359.712 283.776C360.795 283.276 361.566 282.651 362.024 281.901C362.482 281.151 362.712 280.276 362.712 279.276C362.712 278.276 362.441 277.432 361.899 276.744C361.378 276.036 360.493 275.463 359.243 275.026C358.014 274.588 356.378 274.276 354.337 274.088C352.295 273.88 349.774 273.776 346.774 273.776C343.774 273.776 341.347 273.828 339.493 273.932C337.66 274.036 336.243 274.276 335.243 274.651C334.243 275.026 333.566 275.578 333.212 276.307C332.878 277.036 332.712 278.026 332.712 279.276C332.712 280.526 332.889 281.546 333.243 282.338C333.618 283.109 334.368 283.713 335.493 284.151C336.618 284.588 338.232 284.89 340.337 285.057C342.462 285.203 345.274 285.276 348.774 285.276ZM407.743 264.994C407.743 263.494 407.628 262.255 407.399 261.276C407.191 260.276 406.68 259.484 405.868 258.901C405.055 258.296 403.847 257.88 402.243 257.651C400.66 257.401 398.493 257.276 395.743 257.276C393.055 257.276 390.868 257.515 389.18 257.994C387.493 258.453 386.17 259.109 385.212 259.963C384.253 260.817 383.597 261.838 383.243 263.026C382.91 264.213 382.743 265.536 382.743 266.994V289.276H376.743V253.276H382.743V258.994C382.951 258.349 383.337 257.64 383.899 256.869C384.462 256.078 385.316 255.349 386.462 254.682C387.607 253.994 389.087 253.421 390.899 252.963C392.732 252.505 395.014 252.276 397.743 252.276C400.868 252.276 403.41 252.557 405.368 253.119C407.326 253.661 408.847 254.474 409.93 255.557C411.035 256.619 411.774 257.942 412.149 259.526C412.545 261.109 412.743 262.932 412.743 264.994H407.743ZM437.743 257.276C435.41 257.276 433.389 257.349 431.68 257.494C429.993 257.64 428.555 257.901 427.368 258.276C426.18 258.651 425.212 259.171 424.462 259.838C423.732 260.505 423.16 261.359 422.743 262.401C422.347 263.442 422.076 264.703 421.93 266.182C421.805 267.64 421.743 269.359 421.743 271.338C421.743 273.296 421.805 275.005 421.93 276.463C422.076 277.901 422.347 279.14 422.743 280.182C423.16 281.203 423.732 282.046 424.462 282.713C425.212 283.38 426.18 283.901 427.368 284.276C428.555 284.651 429.993 284.911 431.68 285.057C433.389 285.203 435.41 285.276 437.743 285.276C439.743 285.276 441.524 285.234 443.087 285.151C444.649 285.046 446.024 284.838 447.212 284.526C448.399 284.192 449.399 283.724 450.212 283.119C451.045 282.494 451.722 281.671 452.243 280.651C452.764 279.609 453.139 278.328 453.368 276.807C453.618 275.265 453.743 273.411 453.743 271.244C453.743 269.078 453.618 267.224 453.368 265.682C453.139 264.14 452.764 262.859 452.243 261.838C451.722 260.796 451.045 259.974 450.212 259.369C449.399 258.765 448.399 258.307 447.212 257.994C446.024 257.682 444.649 257.484 443.087 257.401C441.524 257.317 439.743 257.276 437.743 257.276ZM459.743 284.276C459.743 287.776 459.347 290.682 458.555 292.994C457.764 295.307 456.493 297.171 454.743 298.588C452.993 300.026 450.722 301.026 447.93 301.588C445.139 302.151 441.743 302.432 437.743 302.432C433.993 302.432 430.837 302.265 428.274 301.932C425.732 301.599 423.68 301.067 422.118 300.338C420.555 299.63 419.43 298.703 418.743 297.557C418.076 296.432 417.743 295.057 417.743 293.432H423.743C423.743 294.244 423.951 294.911 424.368 295.432C424.805 295.953 425.555 296.359 426.618 296.651C427.68 296.942 429.107 297.14 430.899 297.244C432.712 297.369 434.993 297.432 437.743 297.432C440.743 297.432 443.264 297.317 445.305 297.088C447.347 296.88 448.993 296.369 450.243 295.557C451.493 294.744 452.389 293.515 452.93 291.869C453.472 290.224 453.743 288.026 453.743 285.276C453.451 285.776 452.982 286.317 452.337 286.901C451.712 287.484 450.785 288.026 449.555 288.526C448.347 289.026 446.785 289.442 444.868 289.776C442.951 290.109 440.576 290.276 437.743 290.276C433.743 290.276 430.347 289.974 427.555 289.369C424.764 288.786 422.493 287.776 420.743 286.338C418.993 284.901 417.722 282.963 416.93 280.526C416.139 278.088 415.743 275.026 415.743 271.338C415.743 267.588 416.139 264.484 416.93 262.026C417.722 259.567 418.993 257.619 420.743 256.182C422.493 254.744 424.764 253.734 427.555 253.151C430.347 252.567 433.743 252.276 437.743 252.276C440.576 252.276 442.951 252.421 444.868 252.713C446.785 253.005 448.347 253.369 449.555 253.807C450.785 254.244 451.712 254.724 452.337 255.244C452.982 255.744 453.451 256.203 453.743 256.619V253.276H459.743V284.276ZM469.743 253.276H475.743V289.276H469.743V253.276ZM475.743 247.276H469.743V241.276H475.743V247.276ZM521.743 289.276V269.276C521.743 267.046 521.576 265.171 521.243 263.651C520.91 262.109 520.243 260.869 519.243 259.932C518.243 258.994 516.826 258.317 514.993 257.901C513.16 257.484 510.743 257.276 507.743 257.276C504.493 257.276 501.826 257.515 499.743 257.994C497.68 258.474 496.055 259.151 494.868 260.026C493.68 260.901 492.857 261.953 492.399 263.182C491.962 264.411 491.743 265.776 491.743 267.276V289.276H485.743V253.276H491.743V259.276C492.18 258.255 492.805 257.38 493.618 256.651C494.43 255.901 495.347 255.265 496.368 254.744C497.389 254.224 498.493 253.807 499.68 253.494C500.868 253.161 502.055 252.911 503.243 252.744C504.43 252.557 505.576 252.432 506.68 252.369C507.805 252.307 508.826 252.276 509.743 252.276C512.41 252.276 514.701 252.442 516.618 252.776C518.555 253.109 520.191 253.599 521.524 254.244C522.878 254.89 523.962 255.692 524.774 256.651C525.587 257.609 526.212 258.724 526.649 259.994C527.107 261.244 527.41 262.651 527.555 264.213C527.701 265.755 527.774 267.442 527.774 269.276L527.743 289.276H521.743ZM541.805 265.276H535.805V259.276H541.805V265.276ZM541.805 283.276H535.805V277.276H541.805V283.276Z" fill="black"/>
    </svg>
    