<svg width="1280" height="832" viewBox="0 0 1280 832" fill="none" xmlns="http://www.w3.org/2000/svg">
    <path fill-rule="evenodd" clip-rule="evenodd" d="M734.845 538.787C735.882 526.408 736.71 513.633 737.311 500.534C746.361 491.034 755.06 481.564 763.375 472.184C781.332 492.442 797.496 512.288 811.519 531.145C787.987 534.581 762.205 537.184 734.845 538.787ZM725.639 611.194C729.533 589.256 732.656 564.9 734.845 538.787C722.683 539.499 710.21 540.014 697.485 540.317C704.338 533.804 711.207 527.108 718.073 520.243C724.645 513.671 731.061 507.095 737.311 500.534C738.07 483.994 738.466 466.935 738.466 449.5C738.466 448.01 738.463 446.523 738.458 445.039C747.096 454.135 755.412 463.2 763.375 472.184C781.054 452.24 796.994 432.695 810.864 414.1C892.343 425.924 947 447.728 947 472.67C947 497.546 892.635 519.3 811.519 531.145C860.197 596.609 883.065 650.162 865.528 667.699C847.695 685.532 792.615 661.582 725.639 611.194ZM615.246 610.547C627.58 680.459 647.733 726 670.5 726C693.197 726 713.295 680.74 725.639 611.194C707.783 597.76 689.081 582.447 670.013 565.546C679.105 557.487 688.279 549.067 697.485 540.317C688.606 540.529 679.605 540.637 670.5 540.637C661.054 540.637 651.718 540.52 642.516 540.293C635.672 533.788 628.81 527.1 621.954 520.243C615.74 514.029 609.665 507.812 603.738 501.607C602.947 484.732 602.533 467.312 602.533 449.5C602.533 447.666 602.538 445.836 602.546 444.01C608.849 437.39 615.322 430.755 621.954 424.124C628.46 417.618 634.969 411.264 641.465 405.074C651.007 404.829 660.694 404.704 670.5 404.704C679.964 404.704 689.316 404.821 698.535 405.049C705.039 411.247 711.558 417.609 718.073 424.124C725.047 431.099 731.847 438.078 738.458 445.039C738.407 432.029 738.136 419.237 737.658 406.723C763.72 408.321 788.319 410.829 810.864 414.1C859.992 348.237 883.143 294.283 865.528 276.669C848.232 259.372 795.897 281.382 731.653 328.696C720.631 236.524 697.389 173 670.5 173C643.546 173 620.258 236.828 609.268 329.356C544.616 281.587 491.875 259.292 474.498 276.669C456.872 294.295 480.064 348.307 529.257 414.228C448.264 426.081 394 447.818 394 472.67C394 497.456 447.972 519.142 528.603 531.016C479.859 596.539 456.95 650.151 474.498 667.699C492.408 685.608 547.882 661.376 615.246 610.547ZM606.155 538.787C578.454 537.164 552.371 534.516 528.603 531.016C542.603 512.197 558.735 492.396 576.651 472.184C585.279 481.917 594.321 491.746 603.738 501.607C604.335 514.331 605.146 526.746 606.155 538.787ZM606.155 538.787C617.998 539.481 630.136 539.987 642.516 540.293C651.73 549.051 660.913 557.48 670.013 565.546C651.251 582.177 632.843 597.269 615.246 610.547C611.405 588.777 608.322 564.644 606.155 538.787ZM576.651 472.184C559.013 452.285 543.105 432.785 529.257 414.228C552.041 410.894 576.94 408.342 603.342 406.723C602.877 418.907 602.607 431.354 602.546 444.01C593.558 453.451 584.914 462.861 576.651 472.184ZM670.013 378.821C691.233 360.012 712 343.17 731.653 328.696C734.552 352.935 736.605 379.155 737.658 406.723C724.942 405.943 711.879 405.379 698.535 405.049C688.977 395.941 679.45 387.186 670.013 378.821ZM670.013 378.821C649.115 360.297 628.656 343.681 609.268 329.356C606.411 353.411 604.385 379.405 603.342 406.723C615.739 405.962 628.468 405.408 641.465 405.074C651.032 395.957 660.567 387.194 670.013 378.821Z" fill="#515151"/>
    <path d="M-94.2963 -495C-70.6768 -453.886 -49.7104 -415.482 -31.2113 -379.637L382 376L-261 5.15009C-55.0894 115.986 257.677 180.135 -31.2113 -379.637L-94.2963 -495Z" fill="#FF00D6"/>
    <path d="M-94.2963 -495C298.172 188.16 -41.9037 123.083 -261 5.15009L382 376L-94.2963 -495Z" stroke="black"/>
    <path d="M1048.38 304.017C1100.61 340.573 1153.5 366.761 1198.03 378.119C1242.55 389.476 1275.97 385.3 1292.57 366.303C1309.18 347.305 1307.95 314.661 1289.09 273.933C1270.23 233.204 1234.92 186.912 1189.17 142.943C1143.41 98.9737 1090.04 60.0485 1038.16 32.7996C986.277 5.55069 939.086 -8.33594 904.628 -6.49419C870.171 -4.65244 850.579 12.8037 849.19 42.9C847.801 72.9963 864.702 113.871 897.013 158.558L994.302 174.971C979.49 154.486 971.743 135.748 972.379 121.952C973.016 108.155 981.997 100.153 997.793 99.3091C1013.59 98.4648 1035.22 104.831 1059.01 117.322C1082.79 129.813 1107.25 147.657 1128.23 167.813C1149.2 187.969 1165.39 209.19 1174.03 227.86C1182.68 246.53 1183.24 261.495 1175.63 270.203C1168.02 278.912 1152.7 280.826 1132.29 275.62C1111.88 270.413 1087.64 258.409 1063.69 241.651L1048.38 304.017Z" fill="#00FF57"/>
    <path d="M215.261 1074.13C-162.798 655.876 -856.678 884.749 -131.061 668.809C449.433 496.057 341.693 867.041 215.261 1074.13Z" fill="#FFB800" stroke="black"/>
    <path d="M1195 606L1426.23 712.25V924.75L1195 1031L963.771 924.75V712.25L1195 606Z" fill="#0029FF"/>
    </svg>
    