<svg width="1200" height="1200" viewBox="0 0 1200 1200" fill="none" xmlns="http://www.w3.org/2000/svg">
    <path fill-rule="evenodd" clip-rule="evenodd" d="M1200 0H0V822.066C371.353 700.834 344.035 803.977 311.595 822.066C304.595 825.969 281.433 833.798 252.208 843.676C146.009 879.572 -40.2489 942.527 177.994 942.527C400.635 942.527 484.467 862.219 498.552 822.066C398.671 778.063 244.837 676.51 428.55 622.322C612.263 568.133 701.16 813.214 722.645 942.527L929.664 599.615C873.036 837.203 808.696 1238.41 1004.36 942.527C1160.42 706.542 1199.77 871.058 1200 1050.76V0ZM1200 1053.9C1199.94 1098.5 1197.51 1143.9 1193.88 1184.22L0 1199.62V1200H1200V1053.9Z" fill="#394067"/>
    </svg>
    