<svg width="69" height="70" viewBox="0 0 69 70" fill="none" xmlns="http://www.w3.org/2000/svg">
    <path fill-rule="evenodd" clip-rule="evenodd" d="M42.5286 46.1407C42.658 44.5961 42.7613 43.0021 42.8363 41.3677C43.9654 40.1823 45.0509 39.0008 46.0884 37.8303C48.329 40.358 50.3458 42.8343 52.0954 45.1872C49.1593 45.616 45.9423 45.9407 42.5286 46.1407ZM41.38 55.1753C41.8658 52.4379 42.2554 49.399 42.5286 46.1407C41.0111 46.2296 39.4548 46.2938 37.867 46.3316C38.722 45.519 39.5792 44.6835 40.4358 43.8269C41.2558 43.0069 42.0565 42.1863 42.8363 41.3677C42.9309 39.3039 42.9804 37.1755 42.9804 35C42.9804 34.8141 42.9801 34.6286 42.9794 34.4434C44.0572 35.5783 45.0948 36.7094 46.0884 37.8303C48.2942 35.3419 50.2832 32.9032 52.0138 30.583C62.1802 32.0584 69 34.7789 69 37.8911C69 40.9948 62.2167 43.7092 52.0954 45.1872C58.1692 53.3554 61.0225 60.0374 58.8344 62.2255C56.6093 64.4506 49.7368 61.4623 41.38 55.1753ZM27.6057 55.0945C29.1447 63.8176 31.6592 69.5 34.5 69.5C37.332 69.5 39.8397 63.8527 41.38 55.1753C39.1519 53.4991 36.8184 51.5884 34.4392 49.4795C35.5736 48.474 36.7184 47.4234 37.867 46.3316C36.7592 46.358 35.636 46.3715 34.5 46.3715C33.3213 46.3715 32.1565 46.357 31.0082 46.3286C30.1543 45.5169 29.2982 44.6825 28.4426 43.8269C27.6673 43.0516 26.9093 42.2758 26.1699 41.5016C26.0712 39.396 26.0195 37.2226 26.0195 35C26.0195 34.7711 26.0201 34.5428 26.0212 34.315C26.8076 33.489 27.6153 32.6611 28.4427 31.8337C29.2544 31.022 30.0667 30.2292 30.8772 29.4568C32.0678 29.4263 33.2765 29.4106 34.5 29.4106C35.6808 29.4106 36.8477 29.4252 37.998 29.4537C38.8096 30.227 39.6229 31.0209 40.4358 31.8337C41.3061 32.704 42.1545 33.5748 42.9794 34.4434C42.973 32.8201 42.9392 31.224 42.8796 29.6625C46.1315 29.8619 49.2008 30.1748 52.0138 30.583C58.1437 22.365 61.0323 15.633 58.8344 13.4351C56.6763 11.277 50.1463 14.0232 42.1304 19.9267C40.7551 8.42615 37.8551 0.5 34.5 0.5C31.1369 0.5 28.2311 8.46403 26.8598 20.0092C18.7929 14.0488 12.2122 11.267 10.044 13.4351C7.84474 15.6344 10.7385 22.3738 16.8766 30.599C6.77077 32.0779 0 34.7901 0 37.8911C0 40.9836 6.73435 43.6896 16.795 45.1711C10.713 53.3467 7.85454 60.036 10.0441 62.2255C12.2787 64.4601 19.2005 61.4366 27.6057 55.0945ZM26.4714 46.1407C23.0151 45.9382 19.7605 45.6078 16.795 45.1711C18.5418 42.823 20.5546 40.3523 22.79 37.8303C23.8666 39.0449 24.9949 40.2713 26.1699 41.5016C26.2443 43.0892 26.3455 44.6383 26.4714 46.1407ZM26.4714 46.1407C27.9491 46.2272 29.4636 46.2904 31.0082 46.3286C32.1579 47.4214 33.3038 48.473 34.4392 49.4795C32.0982 51.5546 29.8014 53.4378 27.6057 55.0945C27.1265 52.3781 26.7419 49.367 26.4714 46.1407ZM22.79 37.8303C20.5893 35.3476 18.6044 32.9144 16.8766 30.599C19.7194 30.183 22.8262 29.8645 26.1204 29.6625C26.0624 31.1828 26.0287 32.7359 26.0212 34.315C24.8996 35.493 23.8211 36.6671 22.79 37.8303ZM34.4392 26.1811C37.0869 23.8342 39.6782 21.7327 42.1304 19.9267C42.492 22.9512 42.7483 26.2228 42.8796 29.6625C41.293 29.5652 39.663 29.4949 37.998 29.4537C36.8054 28.3172 35.6167 27.2249 34.4392 26.1811ZM34.4392 26.1811C31.8317 23.8698 29.2789 21.7966 26.8598 20.0092C26.5033 23.0106 26.2505 26.254 26.1204 29.6625C27.6673 29.5676 29.2555 29.4984 30.8772 29.4568C32.0708 28.3192 33.2606 27.2259 34.4392 26.1811Z" fill="currentColor"/>
    </svg>
    