<svg width="600" height="600" viewBox="0 0 600 600" fill="none" xmlns="http://www.w3.org/2000/svg">
    <path fill-rule="evenodd" clip-rule="evenodd" d="M600 0H0V411.034C185.677 350.418 172.018 401.99 155.798 411.034C152.297 412.986 140.716 416.9 126.104 421.839C73.0046 439.787 -20.1244 471.265 88.9969 471.265C200.317 471.265 242.233 431.111 249.276 411.034C199.336 389.033 122.419 338.256 214.275 311.162C306.132 284.068 350.58 406.608 361.322 471.265L464.832 299.809C436.518 418.603 404.348 619.206 502.18 471.265C580.208 353.272 599.886 435.53 600 525.379V0ZM600 526.951C599.972 549.253 598.755 571.952 596.94 592.111L0 599.809V600H600V526.951Z" fill="#394067"/>
    </svg>
    