<svg width="300" height="300" viewBox="0 0 300 300" fill="none" xmlns="http://www.w3.org/2000/svg">
    <path fill-rule="evenodd" clip-rule="evenodd" d="M300 0H0V205.516C92.8383 175.209 86.0088 200.994 77.8988 205.516C76.1486 206.492 70.3581 208.45 63.0519 210.919C36.5023 219.893 -10.0622 235.632 44.4984 235.632C100.159 235.632 121.117 215.555 124.638 205.516C99.6678 194.516 61.2093 169.128 107.138 155.581C153.066 142.033 175.29 203.303 180.661 235.632L232.416 149.904C218.259 209.301 202.174 309.602 251.09 235.632C290.104 176.635 299.943 217.765 300 262.689V0ZM300 263.475C299.986 274.626 299.377 285.976 298.47 296.055L0 299.904V300H300V263.475Z" fill="#394067"/>
    </svg>
    