<svg width="1408" height="1560" viewBox="0 0 1408 1560" fill="none" xmlns="http://www.w3.org/2000/svg">
    <rect x="1" width="1405.67" height="1559" fill="#FFF500"/>
    <path d="M366 1069C404 1045.5 436 911.5 1 1069V1559.5L1399.5 1539.5C1421 1274.67 1406.7 841.1 1177.5 1225.5C948.3 1609.9 1023.67 1088.67 1090 780L847.5 1225.5C822.333 1057.5 718.2 739.1 503 809.5C287.8 879.9 468 1011.83 585 1069C568.5 1121.17 470.3 1225.5 209.5 1225.5C-116.499 1225.5 328 1092.5 366 1069Z" fill="#CB9303"/>
    <path d="M1 1069C436 911.5 404 1045.5 366 1069C328 1092.5 -116.499 1225.5 209.5 1225.5C470.3 1225.5 568.5 1121.17 585 1069C468 1011.83 287.8 879.9 503 809.5C718.2 739.1 822.333 1057.5 847.5 1225.5L1090 780C1023.67 1088.67 948.3 1609.9 1177.5 1225.5C1406.7 841.1 1421 1274.67 1399.5 1539.5L1 1559.5V1051.5" stroke="#C12020"/>
    <path d="M510 265.202C647 556.702 730.5 299.702 730.5 211.702V546.702C810.333 612.036 974.9 746.602 994.5 762.202C1014.1 777.802 803.667 675.702 696 622.702L615.5 1078.7L614.48 1024.45L605.5 1068.7V546.702L510 265.202Z" fill="#0023DA"/>
    <path d="M696 622.702C803.667 675.702 1014.1 777.802 994.5 762.202C974.9 746.602 810.333 612.036 730.5 546.702C730.5 405.702 730.5 141.302 730.5 211.702C730.5 299.702 647 556.702 510 265.202L605.5 546.702M696 622.702L605.5 1068.7V546.702M696 622.702L615.5 1078.7L605.5 546.702" stroke="#C12020"/>
    <path d="M82 188.202C219 479.702 302.5 222.702 302.5 134.702V469.702C382.333 535.036 546.9 669.602 566.5 685.202C586.1 700.802 375.667 598.702 268 545.702L187.5 1001.7L186.48 947.446L177.5 991.702V469.702L82 188.202Z" fill="#0029FF"/>
    <path d="M268 545.702C375.667 598.702 586.1 700.802 566.5 685.202C546.9 669.602 382.333 535.036 302.5 469.702C302.5 328.702 302.5 64.3025 302.5 134.702C302.5 222.702 219 479.702 82 188.202L177.5 469.702M268 545.702L177.5 991.702V469.702M268 545.702L187.5 1001.7L177.5 469.702" stroke="#0029FF"/>
    <path d="M1093 682.26C1181.55 875.664 1235.53 705.15 1235.53 646.764V869.03C1287.13 912.377 1393.5 1001.66 1406.17 1012.01C1418.84 1022.36 1282.82 954.618 1213.23 919.454L1161.19 1222L1160.53 1186L1154.73 1215.37V869.03L1093 682.26Z" fill="#0029FF"/>
    <path d="M1213.23 919.454C1282.82 954.618 1418.84 1022.36 1406.17 1012.01C1393.5 1001.66 1287.13 912.377 1235.53 869.03C1235.53 775.479 1235.53 600.055 1235.53 646.764C1235.53 705.15 1181.55 875.664 1093 682.26L1154.73 869.03M1213.23 919.454L1154.73 1215.37V869.03M1213.23 919.454L1161.19 1222L1154.73 869.03" stroke="#0029FF"/>
    <path d="M683.5 324.487C683.5 354.587 659.1 378.987 629 378.987C598.9 378.987 574.5 354.587 574.5 324.487C574.5 294.388 598.9 269.987 629 269.987C659.1 269.987 683.5 294.388 683.5 324.487Z" fill="#830D0D"/>
    <circle cx="1175" cy="736" r="26" fill="#830D0D"/>
    <circle cx="205.5" cy="254.5" r="54.5" fill="#830D0D"/>
    </svg>